<svg xmlns="http://www.w3.org/2000/svg" viewBox="0 0 28.89 27.38"><defs><style>.cls-1{fill:#13cff0;}.cls-2{fill:#fff;}</style></defs><g id="Layer_2" data-name="Layer 2"><g id="Layer_1-2" data-name="Layer 1"><path class="cls-1" d="M14.45,27.36V6.75a13.84,13.84,0,0,0,2.25-.21C19.37,5.7,24.5-.92,26.06.11c1.85,1.21-1,10.53-1,10.53s1.66,3.19,2.68,4.91,1.17,8.92,1.17,8.92S21,21,20,22s-1.91,5.39-2.43,5.41S14.45,27.36,14.45,27.36Z"/><path class="cls-2" d="M17,17.72s.55-1.88.89-2,3.06-.51,3.06-.51A15.81,15.81,0,0,1,19.24,17,10.62,10.62,0,0,1,17,17.72Z"/><path class="cls-1" d="M14.45,27.36V6.75a13.75,13.75,0,0,1-2.25-.21C9.52,5.7,4.39-.92,2.83.11c-1.85,1.21,1,10.53,1,10.53s-1.66,3.19-2.68,4.91S0,24.47,0,24.47,7.88,21,8.91,22s1.92,5.39,2.43,5.41S14.45,27.36,14.45,27.36Z"/><path class="cls-2" d="M11.91,17.72s-.55-1.88-.89-2-3-.51-3-.51A15.52,15.52,0,0,0,9.65,17,10.8,10.8,0,0,0,11.91,17.72Z"/></g></g></svg>