<svg xmlns="http://www.w3.org/2000/svg" viewBox="0 0 26.36 27.44"><defs><style>.cls-1{fill:#13cff0;}.cls-2{fill:#fff;}</style></defs><g id="Layer_2" data-name="Layer 2"><g id="Layer_1-2" data-name="Layer 1"><polygon class="cls-1" points="10.25 26.86 10.25 21.16 13.18 21.16 13.18 7.48 2.06 19.14 6.1 19.14 6.1 27.44 13.18 27.44 13.18 26.86 10.25 26.86"/><ellipse class="cls-1" cx="2.76" cy="11.6" rx="3.91" ry="2.75" transform="translate(-9.01 13.51) rotate(-85.85)"/><ellipse class="cls-1" cx="8.77" cy="4.89" rx="4.9" ry="3.24" transform="translate(2.98 13.09) rotate(-83.96)"/><polygon class="cls-1" points="16.12 26.86 16.12 21.16 13.18 21.16 13.18 7.48 24.3 19.14 20.27 19.14 20.27 27.44 13.18 27.44 13.18 26.86 16.12 26.86"/><ellipse class="cls-1" cx="23.61" cy="11.6" rx="2.75" ry="3.91" transform="translate(-0.78 1.74) rotate(-4.15)"/><ellipse class="cls-1" cx="17.6" cy="4.89" rx="3.24" ry="4.9" transform="translate(-0.42 1.88) rotate(-6.04)"/><rect class="cls-2" x="10.25" y="20.2" width="5.87" height="6.66"/></g></g></svg>