<svg xmlns="http://www.w3.org/2000/svg" viewBox="0 0 20.98 23.85"><defs><style>.cls-1{fill:#13cff0;}</style></defs><g id="Layer_2" data-name="Layer 2"><g id="Layer_1-2" data-name="Layer 1"><ellipse class="cls-1" cx="4.74" cy="19.76" rx="4.74" ry="4.09"/><path class="cls-1" d="M21,7a8.88,8.88,0,0,1-2.37.23c-.41,0-.82-.07-1.23-.14a2.63,2.63,0,0,1-.69-.22,4.44,4.44,0,0,1-.54-.4,11.73,11.73,0,0,1-1.73-1.72A20.26,20.26,0,0,1,13,2.85l1.79-.25L11.65,12.9l-1.58,5.16c-.12.43-.28.85-.37,1.29A11.94,11.94,0,0,1,9,20.56c-.47.8-1,1.58-1.49,2.36q0-1.41.09-2.79a12.25,12.25,0,0,1,.11-1.37c.17-.42.28-.86.42-1.29l1.57-5.15L12.88,2l.62-2,1.18,1.76A20.15,20.15,0,0,0,16,3.45a9.66,9.66,0,0,0,1.43,1.43c.12.1.26.15.37.23s.17.19.31.29A7.62,7.62,0,0,0,19,6,12.77,12.77,0,0,0,21,7Z"/><circle class="cls-1" cx="11.47" cy="22.08" r="1.21"/></g></g></svg>