<svg xmlns="http://www.w3.org/2000/svg" viewBox="0 0 77.99 31.75"><defs><style>.cls-1{fill:#13cff0;}.cls-2{fill:none;stroke:#13cff0;stroke-miterlimit:10;}</style></defs><g id="Layer_2" data-name="Layer 2"><g id="Layer_1-2" data-name="Layer 1"><path class="cls-1" d="M26.78,30.7c-2-.27-3.82-2.21-5-3.84A3.65,3.65,0,0,0,24,25.93a4,4,0,0,0-5.14-6.11c-.62.46-.44.95.18.57.76,3.42-.19,6.87-1.11,10.25-.21.75.37,1.19.76.49a16,16,0,0,0,1.57-4.25,9.28,9.28,0,0,0,6.29,4.56C27.36,31.54,27.58,30.81,26.78,30.7ZM20.25,19.91a3.21,3.21,0,0,1,3.2,2.46c.28.92.64,2.2-.05,2.89a2.5,2.5,0,0,1-2.7.16l-.16,0A15.81,15.81,0,0,0,20.25,19.91Z"/><path class="cls-1" d="M35.89,21.67c-.1-.35-.46,0-.79.06a32.28,32.28,0,0,1-6.86.58c-.81,0-.78.68,0,.7s1.79,0,2.69,0a29.15,29.15,0,0,1-.49,6.91,4.85,4.85,0,0,0-2.14.4.63.63,0,0,0-.23.86c.19.31.4-.18.71-.33,1-.47,2.49,0,3.58.05s2.15.26,3-.48c.26-.22.21-.43,0-.65s-.38,0-.64.22c-.73.62-2.06.09-2.95,0h-.09a31,31,0,0,0,.49-7.07c1.08-.1,2.16-.24,3.24-.44A.64.64,0,0,0,35.89,21.67Z"/><path class="cls-1" d="M54.37,20.68c-1.51-1.23-4-1.37-5.92-.85-.62.16-.34.46.11.67a17.68,17.68,0,0,1-.7,9.93,1.33,1.33,0,0,1-.25.41c-.52.38-.77,1,0,.79,1.93-.58,4.63-.85,6.34-1.95a5.53,5.53,0,0,0,2.57-4.46A5.67,5.67,0,0,0,54.37,20.68ZM52.66,29a21.28,21.28,0,0,1-3.61,1.31,18.86,18.86,0,0,0,.76-9.85,5.74,5.74,0,0,1,3.86,1.31c1.09,1,1.19,2.27,1,3.72S54,28.26,52.66,29Z"/><path class="cls-1" d="M65.28,23c-.28-.89-1.58-1.21-2.4-1.23-3.92-.08-6.37,5.08-4.28,8.06,1.11,1.59,5,1.23,6.57.27.69-.41.29-.86-.37-.51-1,.55-4,.88-5,.06a3.46,3.46,0,0,1-.77-2.41,9.64,9.64,0,0,0,5.34-1.78A2.5,2.5,0,0,0,65.28,23Zm-2,1.87a6.3,6.3,0,0,1-4.19,1.86c0-.09.16-1.09.19-1.19A3.67,3.67,0,0,1,62,23.17a2.43,2.43,0,0,1,1.82.07C64.21,23.53,63.47,24.63,63.25,24.9Z"/><path class="cls-1" d="M68.86,30.14a3.35,3.35,0,0,1,1-.37l1-.19a8.71,8.71,0,0,1,2-.18,20.55,20.55,0,0,1,4.88.79c.77.25-.12-.65-.87-.94a10.17,10.17,0,0,0-4.44-1,11.06,11.06,0,0,0-2.85.49l-.43.13c1.08-2.86.78-6.14.06-9.11-.19-.77-.61-.63-.54.17.29,3.23.6,6.72-.86,9.73v0a1.72,1.72,0,0,1-.29.31c-.68.26.2.78,1.21.26"/><path class="cls-1" d="M25.11,10.71a10.15,10.15,0,0,1-3.3.6,4.47,4.47,0,0,1-2.43-.83,4.82,4.82,0,0,1-2.26-3.64c1.69,1.41,4.11,1.27,6.16,1,.79-.08.84-.63,0-.55a7.65,7.65,0,0,1-5.41-1.46,3.28,3.28,0,0,1-1-1.56c-.08-1.25-.17-2.49-.25-3.72-.05-.8-1.08-.79-1.25,0a6.05,6.05,0,0,0,.25,3.84,81,81,0,0,1,.18,12.16,28.87,28.87,0,0,1-1.57,7.47A9.33,9.33,0,0,1,10.46,29C8,30.65,7.07,28.18,6.69,26.15a21.15,21.15,0,0,1,0-7.69c.42-2.53.88-5.21,1.26-7.75.28-1.88.7-4.34-.43-6S4,4.1,2.72,5.08A7.08,7.08,0,0,0,0,10c-.08.8.29.79.46,0A7,7,0,0,1,5.31,5.14c.87-.18,1.28.13,1.51,1A6.11,6.11,0,0,1,7,8a25.24,25.24,0,0,1-.55,4.24C5.6,17.06,4.23,22,5.22,27a6.47,6.47,0,0,0,2.4,4.23,3.76,3.76,0,0,0,4.49-.44,12.1,12.1,0,0,0,3.27-5.31,28.43,28.43,0,0,0,1.53-6.88,62.1,62.1,0,0,0,.26-8.41,5.93,5.93,0,0,0,1.58,1.41,5.5,5.5,0,0,0,3.09.77,9.9,9.9,0,0,0,3.5-1.12C26.06,10.87,25.83,10.37,25.11,10.71Z"/><path class="cls-1" d="M19.44,9.06A5,5,0,0,1,21.31,9a3.84,3.84,0,0,1,1.77.59,3.65,3.65,0,0,1-1.87.14A4.64,4.64,0,0,1,19.44,9.06Z"/><ellipse class="cls-2" cx="41.89" cy="26.23" rx="5.01" ry="4.51" transform="translate(-0.46 51.71) rotate(-63.08)"/><path class="cls-1" d="M45.91,28.37A5.74,5.74,0,0,1,43.29,31a4.56,4.56,0,0,1-6.5-2.9A5.72,5.72,0,0,1,37.21,24a5.65,5.65,0,0,1,3.08-2.77,4.56,4.56,0,0,1,6.18,3.53A5.78,5.78,0,0,1,45.91,28.37Zm0,0a5,5,0,0,0,.35-3.61,3.8,3.8,0,0,0-5.47-2.39,5,5,0,0,0-2.25,2.25,5,5,0,0,0-.49,3.15,3.8,3.8,0,0,0,5.16,3A4.94,4.94,0,0,0,45.91,28.37Z"/></g></g></svg>