<svg xmlns="http://www.w3.org/2000/svg" viewBox="0 0 74.31 55.23"><defs><style>.cls-1{fill:#13cff0;}</style></defs><g id="Layer_2" data-name="Layer 2"><g id="Layer_1-2" data-name="Layer 1"><path class="cls-1" d="M2.5,8.18A79,79,0,0,0,14.81,8C18.54,7.63,22.13,6.79,25,4.25A2.54,2.54,0,0,0,25,.71a2.56,2.56,0,0,0-3.54,0c-2,1.81-5,2.17-7.63,2.37a82.38,82.38,0,0,1-11.33.1A2.53,2.53,0,0,0,0,5.68a2.54,2.54,0,0,0,2.5,2.5Z"/><path class="cls-1" d="M10.22,8c.54,14.09,1.19,29-4.45,42.3a2.59,2.59,0,0,0,.9,3.42,2.52,2.52,0,0,0,3.42-.9c6-14.2,5.71-29.7,5.13-44.82-.13-3.21-5.13-3.22-5,0Z"/><path class="cls-1" d="M19.08,43.42c2.15.62,4.52,1,6.6-.07s3.08-3.2,3.79-5.23a16.31,16.31,0,0,0,.69-2.92c.19-1.24.55-2.74,0-3.93-1.21-2.62-4.25-1.64-6.3-.81a16,16,0,0,0-8.76,7.89,14,14,0,0,0-1.33,6.16c.07,2.22.6,5,2.67,6.17a10,10,0,0,0,3.41,1,15,15,0,0,0,3.84.26,8.12,8.12,0,0,0,6.2-3.51,2.5,2.5,0,0,0-4.32-2.52q-.24.38-.06.09a2.9,2.9,0,0,1-.36.34c.31-.25-.26.16-.31.19s-.7.29-.33.16a6.74,6.74,0,0,1-1,.26c.47-.09-.43,0-.48,0-.32,0-.63,0-.95,0a14.35,14.35,0,0,1-1.87-.28l-.89-.19-.5-.14a.36.36,0,0,1,.17.07c.2.45,0-.36.1,0-.08-.26-.15-.52-.21-.79a9.19,9.19,0,0,1,0-3,9.4,9.4,0,0,1,3.34-5.57s.63-.5.34-.29c.29-.21.6-.42.9-.61.47-.29.95-.55,1.44-.79a9.09,9.09,0,0,1,1.43-.56l.78-.24.53-.13a1.89,1.89,0,0,1-.58,0L26,33.87l.13.13-.64-1.11c-.1-.32-.06.33-.07.45s-.07.61-.06.57c0,.36-.16,1-.27,1.44a9.72,9.72,0,0,1-1,2.74,2.17,2.17,0,0,1-.54.73c-.2.19-.25.23-.15.13s0-.08-.2.09c.33-.07-.46.06,0,0a3.17,3.17,0,0,1-.69,0c-.18,0-.19,0-.05,0l-.28,0c-.57-.11-1.12-.26-1.67-.42a2.5,2.5,0,1,0-1.33,4.82Z"/><path class="cls-1" d="M47.49,28.93c-1.54.37-3.07.81-4.58,1.33a9.08,9.08,0,0,0-3.83,2.05c-2.62,2.83-.23,6.69,1,9.58.29.7.6,1.39.87,2.09,0,.08.36,1,.33,1s.06-.45.06-.44a.46.46,0,0,1,.17-.22,4.17,4.17,0,0,1-.46.26,1.59,1.59,0,0,1-.53.2,5.92,5.92,0,0,1-1.61.31c-2.83.22-5.67-.17-8.44.65A2.5,2.5,0,1,0,31.8,50.6c.35-.11.71-.19,1.07-.27l.16,0,.55-.06c.66-.05,1.31-.06,2-.06a36.47,36.47,0,0,0,3.91-.11c3.37-.37,7.37-2,6.68-6.13a19.23,19.23,0,0,0-1.5-4l-1-2.3a8.69,8.69,0,0,1-.81-2.18c0,.14,0,.12,0,0s0-.19-.12.3c.15-.25.16-.27,0,0s-.18.13.06,0l.43-.22c-.19.08-.2.09,0,0l1-.36a46.89,46.89,0,0,1,4.58-1.34,2.5,2.5,0,1,0-1.33-4.82Z"/><path class="cls-1" d="M61.22,16.18a355.42,355.42,0,0,1-6.07,35.93c-.69,3.14,4.13,4.48,4.82,1.33a367.05,367.05,0,0,0,6.25-37.26,2.51,2.51,0,0,0-2.5-2.5,2.56,2.56,0,0,0-2.5,2.5Z"/><path class="cls-1" d="M52.24,37.67q9.8-.09,19.57.51a2.5,2.5,0,0,0,0-5q-9.78-.61-19.57-.51c-3.22,0-3.23,5,0,5Z"/></g></g></svg>