<svg xmlns="http://www.w3.org/2000/svg" viewBox="0 0 21.96 22.47"><defs><style>.cls-1{fill:#13cff0;}.cls-2{fill:#fff;}</style></defs><g id="Layer_2" data-name="Layer 2"><g id="Layer_1-2" data-name="Layer 1"><circle class="cls-1" cx="10.98" cy="11.5" r="10.98"/><ellipse class="cls-1" cx="4.91" cy="2.86" rx="3.38" ry="2.63" transform="translate(-0.77 3.03) rotate(-31.93)"/><path class="cls-2" d="M4.63,5a10.64,10.64,0,0,0-2,5.46A10,10,0,0,0,3.58,16,8.3,8.3,0,0,0,8,19.57a13.22,13.22,0,0,0,5.79.77,11.88,11.88,0,0,1-5.91-.42,8.4,8.4,0,0,1-4.72-3.64,10,10,0,0,1-.89-5.91A9.74,9.74,0,0,1,4.63,5Z"/><polygon class="cls-2" points="11.97 10.32 16 17.38 10.37 11.51 11.97 10.32"/><polygon class="cls-2" points="10.37 11.51 6.34 4.45 11.97 10.32 10.37 11.51"/></g></g></svg>